<svg width="509" height="622" viewBox="0 0 509 622" fill="none" xmlns="http://www.w3.org/2000/svg">
<path fill-rule="evenodd" clip-rule="evenodd" d="M332.027 218.28L334.271 251.916L172.831 283.307L179.561 218.28H141.441V186.889H367.907V218.28H332.027ZM40.5333 213.796C-8.79468 153.254 -13.2787 65.8089 33.8041 0.782257L53.9868 16.4796C15.8668 70.2916 18.1121 146.532 60.716 198.093L40.5333 213.79V213.796ZM119.012 148.769C98.8293 124.102 96.5907 85.9876 116.767 59.0809L136.95 74.7783C125.736 92.7156 125.736 115.138 139.195 133.076L119.012 148.773V148.769ZM80.892 182.405C42.772 137.561 40.532 74.7743 74.1628 29.9249L94.3455 43.3783C69.6788 81.4983 69.6788 130.826 98.8299 166.701L80.892 182.405ZM468.799 213.796C518.127 153.254 522.611 65.8089 475.528 0.782257L455.345 16.4796C495.705 70.2916 491.22 146.532 448.616 198.093L468.799 213.79V213.796ZM390.32 148.769C410.503 124.102 412.741 85.9876 392.565 59.0809L372.382 74.7783C385.835 92.7156 383.596 115.138 370.137 133.076L390.32 148.773V148.769ZM430.68 182.405C466.555 137.561 468.8 74.7743 435.164 29.9249L414.982 43.3783C441.888 81.4983 439.648 130.826 410.497 166.701L430.68 182.405ZM98.8267 588.245H410.493V621.881H98.8267V588.245ZM199.728 166.698H311.843V79.2503L255.785 47.8596L199.728 81.4956V166.698ZM336.501 290.021L340.986 341.594L166.092 375.23L170.577 321.418L336.51 290.028L336.501 290.021ZM345.47 379.709L349.955 431.282L157.128 467.157L161.612 413.345L345.47 379.709ZM352.199 469.397L361.168 572.537H148.155L154.884 507.51L352.204 469.39L352.199 469.397Z" fill="#5743D5"/>
</svg>
