<svg width="136" height="200" viewBox="0 0 136 200" fill="none" xmlns="http://www.w3.org/2000/svg">
  <path
    d="M122.959 46.2332C119.939 44.7789 116.583 44.1655 113.244 44.4576C109.905 44.7497 106.706 45.9365 103.985 47.8931C102.633 44.1692 100.272 40.8941 97.1674 38.4328C94.0623 35.9716 90.3346 34.4209 86.3997 33.9538C82.4648 33.4866 78.4774 34.1213 74.8821 35.787C71.2869 37.4528 68.225 40.0841 66.0379 43.3877C62.844 40.654 58.9018 38.9436 54.7232 38.4784C50.5446 38.0133 46.3226 38.815 42.6055 40.7794V21.8097C42.7645 17.249 41.4406 12.7595 38.8323 9.01456C36.2239 5.26957 32.4717 2.47079 28.1381 1.03786C25.3851 0.134662 22.474 -0.184224 19.5908 0.101588C16.7076 0.3874 13.9157 1.27162 11.3938 2.69771C8.85815 4.07419 6.63474 5.96023 4.86334 8.23728C3.09193 10.5143 1.81085 13.1331 1.1006 15.9291C0.672068 17.7801 0.449361 19.6727 0.436523 21.5726C0.436523 31.6265 0.436523 41.6963 0.436523 51.7818C0.436523 77.059 0.436522 103.237 0.768561 128.941C0.490077 141.715 3.76662 154.314 10.2327 165.334C16.6987 176.354 26.1 185.362 37.3877 191.351C46.3675 196.539 56.5682 199.241 66.9392 199.177C79.7032 199.104 92.1854 195.417 102.94 188.543C113.694 181.669 122.28 171.889 127.702 160.336C132.888 149.746 135.473 138.074 135.244 126.285C135.244 117.559 135.244 108.881 135.244 100.155C135.244 88.6463 135.244 77.1222 135.244 65.5823C135.405 61.4913 134.315 57.4485 132.12 53.992C129.925 50.5355 126.73 47.8292 122.959 46.2332V46.2332ZM93.9292 91.9028H74.4338V85.785C74.4338 75.7311 74.4338 65.7246 74.4338 55.6706C74.4224 54.3718 74.6641 53.0832 75.1453 51.8767C75.6045 49.3611 77.0443 47.131 79.1482 45.6769C81.252 44.2227 83.8474 43.6637 86.3635 44.1228C88.8795 44.5819 91.1101 46.0215 92.5646 48.1249C94.019 50.2282 94.5781 52.8231 94.1189 55.3387C94.1189 59.512 94.1189 63.7328 94.1189 67.9061L93.9292 91.9028ZM106.547 85.3582C106.547 79.0982 106.547 72.8856 106.547 66.6256C106.604 65.0161 106.875 63.4213 107.353 61.8832C107.733 60.7523 108.354 59.7172 109.173 58.8493C109.992 57.9815 110.989 57.3015 112.096 56.8562C113.133 56.3535 114.271 56.0962 115.422 56.1044C116.574 56.1126 117.708 56.3861 118.737 56.9037C120.366 57.7435 121.716 59.0368 122.625 60.6274C123.534 62.218 123.963 64.0378 123.86 65.8669C123.86 74.5455 123.86 83.2241 123.86 91.9028V94.0369C121.205 92.5678 118.214 91.8159 115.18 91.8554H106.594L106.547 85.3582ZM11.6784 33.1915C11.6784 29.113 11.6784 25.0345 11.6784 20.9086C11.6725 18.504 12.5803 16.1869 14.2183 14.4261C15.8562 12.6652 18.1019 11.5921 20.5012 11.4238H21.355C23.5628 11.4516 25.6974 12.2191 27.4173 13.6033C29.1373 14.9876 30.3431 16.9086 30.8418 19.0591C31.0901 20.2285 31.2173 21.4204 31.2213 22.6159V50.1694C31.2213 64.207 31.2213 78.2446 31.2213 92.2822C31.2281 97.2946 33.0232 102.14 36.2838 105.948C39.5443 109.755 44.0565 112.275 49.0091 113.054C48.9181 116.344 49.6519 119.605 51.1436 122.539C52.7907 125.973 55.3445 128.892 58.5294 130.982C61.7143 133.071 65.4094 134.251 69.216 134.395C66.3059 137.359 64.0802 140.925 62.6953 144.841C61.3105 148.757 60.8 152.929 61.1997 157.064C61.2054 157.84 61.3672 158.607 61.6756 159.319C61.984 160.032 62.4325 160.675 62.9946 161.21C63.5567 161.746 64.2208 162.162 64.9474 162.436C65.6739 162.709 66.4481 162.834 67.2238 162.802C68.0086 162.78 68.7804 162.596 69.4905 162.261C70.2007 161.927 70.834 161.449 71.3506 160.858C71.902 160.209 72.3097 159.451 72.5468 158.634C72.7839 157.816 72.8451 156.958 72.7262 156.115C72.5068 153.231 72.9725 150.335 74.0854 147.665C75.1983 144.995 76.9267 142.625 79.1298 140.75C83.0763 137.076 87.5339 133.993 92.3639 131.597L96.7278 129.083L98.6252 127.993C99.1342 127.695 99.5224 127.228 99.7218 126.673C99.9212 126.118 99.9192 125.511 99.7162 124.958V124.388C99.5333 123.923 99.2131 123.523 98.7979 123.244C98.3828 122.964 97.8924 122.818 97.3919 122.823H70.5442C68.2978 122.86 66.1113 122.098 64.3741 120.674C62.6368 119.25 61.4614 117.255 61.0573 115.046C60.7731 113.594 60.8129 112.098 61.1736 110.663C61.5344 109.229 62.2073 107.891 63.1444 106.747C64.1064 105.652 65.298 104.782 66.6344 104.2C67.9708 103.618 69.4191 103.338 70.8762 103.379H115.369C116.298 103.329 117.223 103.522 118.055 103.937C118.887 104.353 119.596 104.978 120.113 105.751C122.624 108.792 123.984 112.62 123.955 116.563C123.955 118.84 123.955 121.069 123.955 123.345C124.165 129.257 123.719 135.173 122.627 140.987C120.08 153.329 113.746 164.569 104.507 173.141C98.1175 179.389 90.2297 183.891 81.5999 186.216C72.9701 188.542 63.8875 188.611 55.223 186.419C42.6841 183.391 31.6649 175.929 24.201 165.41C16.0059 154.47 11.6388 141.138 11.7733 127.471V127.471V37.6494L11.6784 33.1915ZM52.5667 49.9323C55.1043 49.9942 57.5171 51.0457 59.2897 52.8623C61.0624 54.6788 62.0542 57.1164 62.0535 59.6543C62.0535 68.2381 62.0535 76.8693 62.0535 85.4531V92.1399C62.0821 92.4396 62.0821 92.7413 62.0535 93.041C62.0535 93.3729 62.0535 93.5152 62.0535 93.4678C58.0882 95.2752 54.7166 98.1692 52.3295 101.814C49.862 101.816 47.4911 100.855 45.7199 99.1378C43.9487 97.4201 42.9167 95.08 42.8426 92.6141V88.4882C42.8426 86.0222 42.8426 83.7458 42.8426 81.1375V71.1309C42.8426 68.6649 42.8426 66.3885 42.8426 63.7328C42.8426 62.3575 42.8426 60.9821 42.8426 59.6068C42.8215 58.3084 43.0673 57.0195 43.5648 55.8199C44.0622 54.6204 44.8008 53.5357 45.7347 52.6331C46.6685 51.7306 47.7778 51.0294 48.9938 50.573C50.2098 50.1165 51.5066 49.9146 52.8038 49.9797L52.5667 49.9323Z"
    fill="url(#paint0_linear_104_34)" />
  <defs>
    <linearGradient id="paint0_linear_104_34" x1="0.294221" y1="99.6804" x2="135.339" y2="99.6804"
      gradientUnits="userSpaceOnUse">
      <stop stop-color="#5C2D90" />
      <stop offset="1" stop-color="#EB008B" />
    </linearGradient>
  </defs>
</svg>