<svg width="127" height="120" viewBox="0 0 127 120" fill="none" xmlns="http://www.w3.org/2000/svg">
<path d="M126.89 59.3627C127.347 50.4051 120.287 44.9994 113.485 40.1023C109.078 13.505 67.7526 13.9016 56.7671 14.9103C35.149 0.590021 10.9137 -0.030732 8.50312 1.11594C7.95211 3.07301 8.33093 27.6271 15.2355 41.9043C15.2355 41.9043 4.53421 48.0773 0.453369 62.1734C9.26934 49.2585 26.135 45.0598 26.135 45.0598C20.3411 32.4121 17.4741 11.1513 18.2145 11.2376C39.9532 13.5223 55.0367 23.7818 55.0367 23.7818C98.4192 22.0231 103.731 37.3951 104.713 45.1717C117.894 54.2415 119.056 58.6558 118.092 62.1303C118.066 62.1734 118.066 62.2422 118.049 62.2855C117.98 62.4836 117.919 62.682 117.851 62.8803H117.876C114.562 73.5106 108.027 83.1927 108.139 83.5891C109.387 88.0292 110.593 104.677 92.8921 105.643C90.0596 79.7698 54.8644 101.599 50.5426 119.067C60.2367 105.884 87.8468 92.0987 85.5223 114.583C119.495 114.756 119.521 92.8141 117.48 85.3738C125.229 72.5192 127.045 61.4061 126.89 59.3627Z" fill="white"/>
<path d="M27.1422 54.2676C18.3433 56.6643 10.3883 61.475 1.7876 72.7347H9.4413C5.55849 79.6061 3.84521 85.2532 4.52535 95.4869C8.76116 82.727 18.7566 71.588 27.6673 64.6478H16.8366L27.1422 54.2676Z" fill="white"/>
</svg>
